<svg xmlns="http://www.w3.org/2000/svg" width="60.844" height="39.013" viewBox="0 0 60.844 39.013">
  <g id="Group_43" data-name="Group 43" transform="translate(-5691.96 -4221.987)">
    <path id="Path_19" data-name="Path 19" d="M5769.258,4278.752c-.2.02-1.911.255-1.911.255l-8.052,7.262s21.59,4.624,21.715,4.417.762-5.82.762-5.82l-1.253-2.031.789-3.827-9.238-3.6Z" transform="translate(-62.505 -49.658)" fill="#ede4cd"/>
    <ellipse id="Ellipse_30" data-name="Ellipse 30" cx="5.286" cy="4.546" rx="5.286" ry="4.546" transform="matrix(0.891, 0.454, -0.454, 0.891, 5711.017, 4222.595)" fill="#ede4cd"/>
    <circle id="Ellipse_31" data-name="Ellipse 31" cx="14" cy="14" r="14" transform="translate(5691.96 4233)" fill="#ede4cd"/>
    <ellipse id="Ellipse_32" data-name="Ellipse 32" cx="10.5" cy="11" rx="10.5" ry="11" transform="translate(5694.96 4236)" fill="#674f40"/>
    <ellipse id="Ellipse_33" data-name="Ellipse 33" cx="5.5" cy="9" rx="5.5" ry="9" transform="translate(5716.96 4233)" fill="#ede4cd"/>
    <path id="Path_20" data-name="Path 20" d="M5771.512,4278.752c.194.02,1.864.255,1.864.255l7.859,7.262s-21.073,4.624-21.194,4.417-.744-5.82-.744-5.82l1.223-2.031-.771-3.827,9.018-3.6Z" transform="translate(-33.06 -50.331)" fill="#ede4cd"/>
    <path id="Path_21" data-name="Path 21" d="M5.142,9.048c2.864-.028,5.205-2.077,5.23-4.575S8.094-.028,5.23,0,.025,2.077,0,4.575,2.278,9.076,5.142,9.048Z" transform="matrix(-0.891, 0.454, -0.454, -0.891, 5738.382, 4230.049)" fill="#ede4cd"/>
    <ellipse id="Ellipse_35" data-name="Ellipse 35" cx="13.724" cy="14.061" rx="13.724" ry="14.061" transform="translate(5725.355 4231.958)" fill="#ede4cd"/>
    <ellipse id="Ellipse_36" data-name="Ellipse 36" cx="10.422" cy="10.678" rx="10.422" ry="10.678" transform="translate(5728.657 4235.342)" fill="#674f40"/>
  </g>
</svg>
